<svg width="224.8019287109375px" height="121.39999999999999px" xmlns="http://www.w3.org/2000/svg" viewBox="137.59903564453126 14.300000000000004 224.8019287109375 121.39999999999999" style="background: rgba(0, 0, 0, 0);" preserveAspectRatio="xMidYMid"><defs><filter id="editing-vr"><feFlood flood-color="#f00" flood-opacity="0.7" result="c1"></feFlood><feFlood flood-color="#00f" flood-opacity="0.7" result="c3"></feFlood><feComposite operator="in" in="c1" in2="SourceAlpha" result="text-c1"></feComposite><feComposite operator="in" in="c3" in2="SourceAlpha" result="text-c3"></feComposite><feOffset in="text-c1" dx="-2" dy="-1" result="text1"></feOffset><feOffset in="text-c3" dx="2" dy="1" result="text3"></feOffset><feBlend in="SourceGraphic" in2="text1" mode="multiply" result="text4"></feBlend><feBlend in="text4" in2="text3" mode="multiply"></feBlend></filter></defs><g filter="url(#editing-vr)"><g transform="translate(176.39803647994995, 98.35999870300293)"><path d="M20.22-22.46L20.22-22.46L20.22-22.46Q21.12-24.83 21.12-26.88L21.12-26.88L21.12-26.88Q21.12-30.66 18.05-30.66L18.05-30.66L18.05-30.66Q16.45-30.66 15.14-29.22L15.14-29.22L15.14-29.22Q13.82-27.78 13.82-25.98L13.82-25.98L13.82-25.98Q13.82-24.70 14.85-23.68L14.85-23.68L14.85-23.68Q16.32-22.27 20.10-19.97L20.10-19.97L20.10-19.97Q23.87-17.66 25.31-15.78L25.31-15.78L25.31-15.78Q26.75-13.89 26.75-11.30L26.75-11.30L26.75-11.30Q26.75-8.70 25.50-6.34L25.50-6.34L25.50-6.34Q24.26-3.97 22.02-2.30L22.02-2.30L22.02-2.30Q17.22 1.28 9.54 1.28L9.54 1.28L9.54 1.28Q5.38 1.28 2.18-0.90L2.18-0.90L2.18-0.90Q-1.02-3.01-1.02-5.50L-1.02-5.50L-1.02-5.50Q-1.02-8 0.80-9.47L0.80-9.47L0.80-9.47Q2.62-10.94 5.31-10.94L5.31-10.94L5.31-10.94Q8-10.94 9.66-9.92L9.66-9.92L9.66-9.92Q8.83-7.81 8.83-6.40L8.83-6.40L8.83-6.40Q8.83-2.18 12.42-2.18L12.42-2.18L12.42-2.18Q13.95-2.18 14.98-3.14L14.98-3.14L14.98-3.14Q16-4.10 16-5.76L16-5.76L16-5.76Q16-9.02 10.50-12.48L10.50-12.48L10.50-12.48Q6.02-15.42 4.99-16.58L4.99-16.58L4.99-16.58Q3.26-18.62 3.26-21.18L3.26-21.18L3.26-21.18Q3.26-23.74 4.48-26.18L4.48-26.18L4.48-26.18Q5.70-28.61 7.94-30.34L7.94-30.34L7.94-30.34Q12.61-33.92 20.74-33.92L20.74-33.92L20.74-33.92Q24.90-33.92 27.36-32.26L27.36-32.26L27.36-32.26Q29.82-30.59 29.82-27.78L29.82-27.78L29.82-27.78Q29.82-24.96 28.13-23.36L28.13-23.36L28.13-23.36Q26.43-21.76 23.36-21.76L23.36-21.76L23.36-21.76Q21.25-21.76 20.22-22.46ZM34.98-1.92L34.98-1.92L34.98-1.92Q33.47-3.58 32.80-6.21L32.80-6.21L32.80-6.21Q32.13-8.83 32.13-13.12L32.13-13.12L32.13-13.12Q32.13-17.41 33.60-21.31L33.60-21.31L33.60-21.31Q35.07-25.22 37.76-28.03L37.76-28.03L37.76-28.03Q43.26-33.92 52.35-33.92L52.35-33.92L52.35-33.92Q55.62-33.92 57.98-32.83L57.98-32.83L68.93-33.92L64.19-8.96L64.19-8.96Q64-8.19 64-6.78L64-6.78L64-6.78Q64-5.38 64.86-4.48L64.86-4.48L64.86-4.48Q65.73-3.58 67.01-3.46L67.01-3.46L67.01-3.46Q66.37-1.28 64.03 0L64.03 0L64.03 0Q61.70 1.28 59.07 1.28L59.07 1.28L59.07 1.28Q56.45 1.28 54.69 0.29L54.69 0.29L54.69 0.29Q52.93-0.70 52.42-2.37L52.42-2.37L52.42-2.37Q51.39-0.77 49.22 0.26L49.22 0.26L49.22 0.26Q47.04 1.28 44.13 1.28L44.13 1.28L44.13 1.28Q41.22 1.28 38.85 0.51L38.85 0.51L38.85 0.51Q36.48-0.26 34.98-1.92ZM48.48-27.90L48.48-27.90L48.48-27.90Q47.74-26.75 47.10-24.80L47.10-24.80L47.10-24.80Q46.46-22.85 45.41-17.63L45.41-17.63L45.41-17.63Q44.35-12.42 44.35-8.70L44.35-8.70L44.35-8.70Q44.35-4.99 44.93-3.90L44.93-3.90L44.93-3.90Q45.50-2.82 46.53-2.82L46.53-2.82L46.53-2.82Q48.58-2.82 50.08-4.77L50.08-4.77L50.08-4.77Q51.58-6.72 52.16-10.18L52.16-10.18L55.55-28.93L55.55-28.93Q54.21-30.08 52.64-30.08L52.64-30.08L52.64-30.08Q51.07-30.08 50.14-29.57L50.14-29.57L50.14-29.57Q49.22-29.06 48.48-27.90ZM76.67-26.75L76.67-26.75L76.67-26.75Q78.85-29.82 82.14-31.87L82.14-31.87L82.14-31.87Q85.44-33.92 89.47-33.92L89.47-33.92L89.47-33.92Q93.50-33.92 95.42-32.64L95.42-32.64L107.97-33.92L103.62-9.34L103.62-9.34Q101.38 3.20 96.64 8.13L96.64 8.13L96.64 8.13Q92.10 12.80 83.26 12.80L83.26 12.80L83.26 12.80Q76.54 12.80 72.70 10.69L72.70 10.69L72.70 10.69Q68.86 8.58 68.86 5.06L68.86 5.06L68.86 5.06Q68.86 2.43 70.85 0.93L70.85 0.93L70.85 0.93Q72.83-0.58 75.90-0.58L75.90-0.58L75.90-0.58Q78.59-0.58 80.64 0.64L80.64 0.64L80.64 0.64Q81.86 1.28 82.43 2.18L82.43 2.18L82.43 2.18Q80.96 3.46 80.96 5.57L80.96 5.57L80.96 5.57Q80.96 8.32 83.52 8.32L83.52 8.32L83.52 8.32Q87.81 8.32 90.24-1.79L90.24-1.79L90.24-1.79Q90.94-4.54 91.52-7.30L91.52-7.30L91.52-7.30Q88.64-3.78 82.11-3.78L82.11-3.78L82.11-3.78Q77.57-3.78 74.94-5.95L74.94-5.95L74.94-5.95Q72.32-8.13 72.32-13.25L72.32-13.25L72.32-13.25Q72.32-16.45 73.41-20.06L73.41-20.06L73.41-20.06Q74.50-23.68 76.67-26.75ZM84.99-13.06L84.99-13.06L84.99-13.06Q84.99-8.70 87.23-8.70L87.23-8.70L87.23-8.70Q88.77-8.70 90.24-10.37L90.24-10.37L90.24-10.37Q91.39-11.71 91.84-13.70L91.84-13.70L95.10-30.14L95.10-30.14Q94.78-30.21 94.46-30.34L94.46-30.34L94.46-30.34Q93.82-30.59 92.99-30.59L92.99-30.59L92.99-30.59Q89.09-30.59 86.78-24.19L86.78-24.19L86.78-24.19Q84.99-19.20 84.99-13.06ZM113.25-1.92L113.25-1.92L113.25-1.92Q111.74-3.58 111.07-6.21L111.07-6.21L111.07-6.21Q110.40-8.83 110.40-13.12L110.40-13.12L110.40-13.12Q110.40-17.41 111.87-21.31L111.87-21.31L111.87-21.31Q113.34-25.22 116.03-28.03L116.03-28.03L116.03-28.03Q121.54-33.92 130.62-33.92L130.62-33.92L130.62-33.92Q133.89-33.92 136.26-32.83L136.26-32.83L147.20-33.92L142.46-8.96L142.46-8.96Q142.27-8.19 142.27-6.78L142.27-6.78L142.27-6.78Q142.27-5.38 143.14-4.48L143.14-4.48L143.14-4.48Q144-3.58 145.28-3.46L145.28-3.46L145.28-3.46Q144.64-1.28 142.30 0L142.30 0L142.30 0Q139.97 1.28 137.34 1.28L137.34 1.28L137.34 1.28Q134.72 1.28 132.96 0.29L132.96 0.29L132.96 0.29Q131.20-0.70 130.69-2.37L130.69-2.37L130.69-2.37Q129.66-0.77 127.49 0.26L127.49 0.26L127.49 0.26Q125.31 1.28 122.40 1.28L122.40 1.28L122.40 1.28Q119.49 1.28 117.12 0.51L117.12 0.51L117.12 0.51Q114.75-0.26 113.25-1.92ZM126.75-27.90L126.75-27.90L126.75-27.90Q126.02-26.75 125.38-24.80L125.38-24.80L125.38-24.80Q124.74-22.85 123.68-17.63L123.68-17.63L123.68-17.63Q122.62-12.42 122.62-8.70L122.62-8.70L122.62-8.70Q122.62-4.99 123.20-3.90L123.20-3.90L123.20-3.90Q123.78-2.82 124.80-2.82L124.80-2.82L124.80-2.82Q126.85-2.82 128.35-4.77L128.35-4.77L128.35-4.77Q129.86-6.72 130.43-10.18L130.43-10.18L133.82-28.93L133.82-28.93Q132.48-30.08 130.91-30.08L130.91-30.08L130.91-30.08Q129.34-30.08 128.42-29.57L128.42-29.57L128.42-29.57Q127.49-29.06 126.75-27.90Z" fill="#444"></path></g></g><style>text {
  font-size: 64px;
  font-family: Arial Black;
  dominant-baseline: central;
  text-anchor: middle;
}</style></svg>