<svg width="420.0137451171875px" height="218px" xmlns="http://www.w3.org/2000/svg" viewBox="39.993127441406244 -34 420.0137451171875 218" style="background: rgba(0, 0, 0, 0);" preserveAspectRatio="xMidYMid"><defs><filter id="editing-vr"><feFlood flood-color="#ff0000" flood-opacity="0.7" result="c1"></feFlood><feFlood flood-color="#5555ff" flood-opacity="0.7" result="c3"></feFlood><feComposite operator="in" in="c1" in2="SourceAlpha" result="text-c1"></feComposite><feComposite operator="in" in="c3" in2="SourceAlpha" result="text-c3"></feComposite><feOffset in="text-c1" dx="-2" dy="-1" result="text1"></feOffset><feOffset in="text-c3" dx="2" dy="1" result="text3"></feOffset><feBlend in="SourceGraphic" in2="text1" mode="multiply" result="text4"></feBlend><feBlend in="text4" in2="text3" mode="multiply"></feBlend></filter></defs><g filter="url(#editing-vr)"><g transform="translate(106.24998474121094, 120.62500309944153)"><path d="M39.50-43.88L39.50-43.88L39.50-43.88Q41.25-48.50 41.25-52.50L41.25-52.50L41.25-52.50Q41.25-59.88 35.25-59.88L35.25-59.88L35.25-59.88Q32.13-59.88 29.56-57.06L29.56-57.06L29.56-57.06Q27-54.25 27-50.75L27-50.75L27-50.75Q27-48.25 29-46.25L29-46.25L29-46.25Q31.88-43.50 39.25-39L39.25-39L39.25-39Q46.63-34.50 49.44-30.81L49.44-30.81L49.44-30.81Q52.25-27.13 52.25-22.06L52.25-22.06L52.25-22.06Q52.25-17 49.81-12.38L49.81-12.38L49.81-12.38Q47.38-7.75 43-4.50L43-4.50L43-4.50Q33.63 2.50 18.63 2.50L18.63 2.50L18.63 2.50Q10.50 2.50 4.25-1.75L4.25-1.75L4.25-1.75Q-2-5.88-2-10.75L-2-10.75L-2-10.75Q-2-15.63 1.56-18.50L1.56-18.50L1.56-18.50Q5.13-21.38 10.38-21.38L10.38-21.38L10.38-21.38Q15.63-21.38 18.88-19.38L18.88-19.38L18.88-19.38Q17.25-15.25 17.25-12.50L17.25-12.50L17.25-12.50Q17.25-4.25 24.25-4.25L24.25-4.25L24.25-4.25Q27.25-4.25 29.25-6.13L29.25-6.13L29.25-6.13Q31.25-8 31.25-11.25L31.25-11.25L31.25-11.25Q31.25-17.63 20.50-24.38L20.50-24.38L20.50-24.38Q11.75-30.13 9.75-32.38L9.75-32.38L9.75-32.38Q6.38-36.38 6.38-41.38L6.38-41.38L6.38-41.38Q6.38-46.38 8.75-51.13L8.75-51.13L8.75-51.13Q11.13-55.88 15.50-59.25L15.50-59.25L15.50-59.25Q24.63-66.25 40.50-66.25L40.50-66.25L40.50-66.25Q48.63-66.25 53.44-63L53.44-63L53.44-63Q58.25-59.75 58.25-54.25L58.25-54.25L58.25-54.25Q58.25-48.75 54.94-45.63L54.94-45.63L54.94-45.63Q51.63-42.50 45.63-42.50L45.63-42.50L45.63-42.50Q41.50-42.50 39.50-43.88ZM68.31-3.75L68.31-3.75L68.31-3.75Q65.38-7 64.06-12.13L64.06-12.13L64.06-12.13Q62.75-17.25 62.75-25.63L62.75-25.63L62.75-25.63Q62.75-34 65.63-41.63L65.63-41.63L65.63-41.63Q68.50-49.25 73.75-54.75L73.75-54.75L73.75-54.75Q84.50-66.25 102.25-66.25L102.25-66.25L102.25-66.25Q108.63-66.25 113.25-64.13L113.25-64.13L134.63-66.25L125.38-17.50L125.38-17.50Q125-16 125-13.25L125-13.25L125-13.25Q125-10.50 126.69-8.75L126.69-8.75L126.69-8.75Q128.38-7 130.88-6.75L130.88-6.75L130.88-6.75Q129.63-2.50 125.06 0L125.06 0L125.06 0Q120.50 2.50 115.38 2.50L115.38 2.50L115.38 2.50Q110.25 2.50 106.81 0.56L106.81 0.56L106.81 0.56Q103.38-1.38 102.38-4.63L102.38-4.63L102.38-4.63Q100.38-1.50 96.13 0.50L96.13 0.50L96.13 0.50Q91.88 2.50 86.19 2.50L86.19 2.50L86.19 2.50Q80.50 2.50 75.88 1L75.88 1L75.88 1Q71.25-0.50 68.31-3.75ZM94.69-54.50L94.69-54.50L94.69-54.50Q93.25-52.25 92-48.44L92-48.44L92-48.44Q90.75-44.63 88.69-34.44L88.69-34.44L88.69-34.44Q86.63-24.25 86.63-17L86.63-17L86.63-17Q86.63-9.75 87.75-7.63L87.75-7.63L87.75-7.63Q88.88-5.50 90.88-5.50L90.88-5.50L90.88-5.50Q94.88-5.50 97.81-9.31L97.81-9.31L97.81-9.31Q100.75-13.13 101.88-19.88L101.88-19.88L108.50-56.50L108.50-56.50Q105.88-58.75 102.81-58.75L102.81-58.75L102.81-58.75Q99.75-58.75 97.94-57.75L97.94-57.75L97.94-57.75Q96.13-56.75 94.69-54.50ZM149.75-52.25L149.75-52.25L149.75-52.25Q154-58.25 160.44-62.25L160.44-62.25L160.44-62.25Q166.88-66.25 174.75-66.25L174.75-66.25L174.75-66.25Q182.63-66.25 186.38-63.75L186.38-63.75L210.88-66.25L202.38-18.25L202.38-18.25Q198 6.25 188.75 15.88L188.75 15.88L188.75 15.88Q179.88 25 162.63 25L162.63 25L162.63 25Q149.50 25 142 20.88L142 20.88L142 20.88Q134.50 16.75 134.50 9.88L134.50 9.88L134.50 9.88Q134.50 4.75 138.38 1.81L138.38 1.81L138.38 1.81Q142.25-1.13 148.25-1.13L148.25-1.13L148.25-1.13Q153.50-1.13 157.50 1.25L157.50 1.25L157.50 1.25Q159.88 2.50 161 4.25L161 4.25L161 4.25Q158.13 6.75 158.13 10.88L158.13 10.88L158.13 10.88Q158.13 16.25 163.13 16.25L163.13 16.25L163.13 16.25Q171.50 16.25 176.25-3.50L176.25-3.50L176.25-3.50Q177.63-8.88 178.75-14.25L178.75-14.25L178.75-14.25Q173.13-7.38 160.38-7.38L160.38-7.38L160.38-7.38Q151.50-7.38 146.38-11.63L146.38-11.63L146.38-11.63Q141.25-15.88 141.25-25.88L141.25-25.88L141.25-25.88Q141.25-32.13 143.38-39.19L143.38-39.19L143.38-39.19Q145.50-46.25 149.75-52.25ZM166-25.50L166-25.50L166-25.50Q166-17 170.38-17L170.38-17L170.38-17Q173.38-17 176.25-20.25L176.25-20.25L176.25-20.25Q178.50-22.88 179.38-26.75L179.38-26.75L185.75-58.88L185.75-58.88Q185.13-59 184.50-59.25L184.50-59.25L184.50-59.25Q183.25-59.75 181.63-59.75L181.63-59.75L181.63-59.75Q174-59.75 169.50-47.25L169.50-47.25L169.50-47.25Q166-37.50 166-25.50ZM221.19-3.75L221.19-3.75L221.19-3.75Q218.25-7 216.94-12.13L216.94-12.13L216.94-12.13Q215.63-17.25 215.63-25.63L215.63-25.63L215.63-25.63Q215.63-34 218.50-41.63L218.50-41.63L218.50-41.63Q221.38-49.25 226.63-54.75L226.63-54.75L226.63-54.75Q237.38-66.25 255.13-66.25L255.13-66.25L255.13-66.25Q261.50-66.25 266.13-64.13L266.13-64.13L287.50-66.25L278.25-17.50L278.25-17.50Q277.88-16 277.88-13.25L277.88-13.25L277.88-13.25Q277.88-10.50 279.56-8.75L279.56-8.75L279.56-8.75Q281.25-7 283.75-6.75L283.75-6.75L283.75-6.75Q282.50-2.50 277.94 0L277.94 0L277.94 0Q273.38 2.50 268.25 2.50L268.25 2.50L268.25 2.50Q263.13 2.50 259.69 0.56L259.69 0.56L259.69 0.56Q256.25-1.38 255.25-4.63L255.25-4.63L255.25-4.63Q253.25-1.50 249 0.50L249 0.50L249 0.50Q244.75 2.50 239.06 2.50L239.06 2.50L239.06 2.50Q233.38 2.50 228.75 1L228.75 1L228.75 1Q224.13-0.50 221.19-3.75ZM247.56-54.50L247.56-54.50L247.56-54.50Q246.13-52.25 244.88-48.44L244.88-48.44L244.88-48.44Q243.63-44.63 241.56-34.44L241.56-34.44L241.56-34.44Q239.50-24.25 239.50-17L239.50-17L239.50-17Q239.50-9.75 240.63-7.63L240.63-7.63L240.63-7.63Q241.75-5.50 243.75-5.50L243.75-5.50L243.75-5.50Q247.75-5.50 250.69-9.31L250.69-9.31L250.69-9.31Q253.63-13.13 254.75-19.88L254.75-19.88L261.38-56.50L261.38-56.50Q258.75-58.75 255.69-58.75L255.69-58.75L255.69-58.75Q252.63-58.75 250.81-57.75L250.81-57.75L250.81-57.75Q249-56.75 247.56-54.50Z" fill="#ffffff"></path></g></g><style>text {
  font-size: 64px;
  font-family: Arial Black;
  dominant-baseline: central;
  text-anchor: middle;
}</style></svg>